<?xml version="1.0" encoding="iso-8859-1"?>
<!-- Generator: Adobe Illustrator 19.0.0, SVG Export Plug-In . SVG Version: 6.00 Build 0)  -->
<svg version="1.1" id="Layer_1" xmlns="http://www.w3.org/2000/svg" xmlns:xlink="http://www.w3.org/1999/xlink" x="0px" y="0px"
	 viewBox="0 0 504.123 504.123" style="enable-background:new 0 0 504.123 504.123;" xml:space="preserve">
<circle style="fill:#FD8469;" cx="252.062" cy="252.062" r="252.062"/>
<rect x="94.523" y="94.523" style="fill:#FFFFFF;" width="315.077" height="315.077"/>
<g>
	<rect x="140.997" y="105.551" style="fill:#324A5E;" width="10.24" height="232.763"/>
	<rect x="171.323" y="105.551" style="fill:#324A5E;" width="10.24" height="232.763"/>
	<rect x="231.582" y="105.551" style="fill:#324A5E;" width="10.24" height="232.763"/>
	<rect x="261.908" y="105.551" style="fill:#324A5E;" width="10.24" height="232.763"/>
	<rect x="352.492" y="105.551" style="fill:#324A5E;" width="10.24" height="232.763"/>
	<rect x="196.135" y="105.551" style="fill:#324A5E;" width="21.268" height="232.763"/>
	<rect x="286.72" y="105.551" style="fill:#324A5E;" width="21.268" height="232.763"/>
	<rect x="105.551" y="105.551" style="fill:#324A5E;" width="21.268" height="293.022"/>
	<rect x="377.305" y="105.551" style="fill:#324A5E;" width="21.268" height="293.022"/>
	<rect x="322.166" y="105.551" style="fill:#324A5E;" width="10.634" height="232.763"/>
	<path style="fill:#324A5E;" d="M154.782,397.391c-4.726,0-7.877-1.575-10.24-5.12c-2.363-3.545-3.545-7.877-3.545-13.785
		c0-5.514,1.182-10.24,3.545-13.785s5.514-5.12,10.24-5.12s7.877,1.575,10.24,5.12s3.545,7.877,3.545,13.785
		c0,5.514-1.182,10.24-3.545,13.785C162.658,395.815,159.114,397.391,154.782,397.391z M150.055,369.822
		c-1.182,2.363-1.575,5.12-1.575,8.665c0,3.545,0.394,6.695,1.575,8.665c1.182,2.363,2.757,3.151,4.726,3.151
		c2.363,0,3.938-1.182,4.726-3.151c1.182-2.363,1.575-5.12,1.575-8.665c0-3.545-0.394-6.695-1.575-8.665
		c-1.182-2.363-2.757-3.151-4.726-3.151C152.418,366.671,150.843,367.458,150.055,369.822z"/>
	<path style="fill:#324A5E;" d="M187.077,397.391c-4.726,0-7.877-1.575-10.24-5.12c-2.363-3.545-3.545-7.877-3.545-13.785
		c0-5.514,1.182-10.24,3.545-13.785c2.363-3.545,5.514-5.12,10.24-5.12c4.726,0,7.877,1.575,10.24,5.12
		c2.363,3.545,3.545,7.877,3.545,13.785c0,5.514-1.182,10.24-3.545,13.785C194.954,395.815,191.803,397.391,187.077,397.391z
		 M182.351,369.822c-1.182,2.363-1.575,5.12-1.575,8.665c0,3.545,0.394,6.695,1.575,8.665c1.182,2.363,2.757,3.151,4.726,3.151
		c2.363,0,3.938-1.182,4.726-3.151c1.182-2.363,1.575-5.12,1.575-8.665c0-3.545-0.394-6.695-1.575-8.665
		c-1.182-2.363-2.757-3.151-4.726-3.151C185.108,366.671,183.532,367.458,182.351,369.822z"/>
	<path style="fill:#324A5E;" d="M219.766,397.391c-4.726,0-7.877-1.575-10.24-5.12c-2.363-3.545-3.545-7.877-3.545-13.785
		c0-5.514,1.182-10.24,3.545-13.785c2.363-3.545,5.514-5.12,10.24-5.12c4.726,0,7.877,1.575,10.24,5.12s3.545,7.877,3.545,13.785
		c0,5.514-1.182,10.24-3.545,13.785C227.643,395.815,224.098,397.391,219.766,397.391z M214.646,369.822
		c-1.182,2.363-1.575,5.12-1.575,8.665c0,3.545,0.394,6.695,1.575,8.665c1.182,2.363,2.757,3.151,4.726,3.151
		c2.363,0,3.938-1.182,4.726-3.151c1.182-2.363,1.575-5.12,1.575-8.665c0-3.545-0.394-6.695-1.575-8.665
		c-1.182-2.363-2.757-3.151-4.726-3.151C217.403,366.671,215.828,367.458,214.646,369.822z"/>
	<path style="fill:#324A5E;" d="M252.062,397.391c-4.726,0-7.877-1.575-10.24-5.12c-2.363-3.545-3.545-7.877-3.545-13.785
		c0-5.514,1.182-10.24,3.545-13.785c2.363-3.545,5.514-5.12,10.24-5.12c4.726,0,7.877,1.575,10.24,5.12s3.545,7.877,3.545,13.785
		c0,5.514-1.182,10.24-3.545,13.785C259.938,395.815,256.788,397.391,252.062,397.391z M247.335,369.822
		c-1.182,2.363-1.575,5.12-1.575,8.665c0,3.545,0.394,6.695,1.575,8.665c1.182,2.363,2.757,3.151,4.726,3.151
		c2.363,0,3.938-1.182,4.726-3.151c1.182-2.363,1.575-5.12,1.575-8.665c0-3.545-0.394-6.695-1.575-8.665
		c-1.182-2.363-2.757-3.151-4.726-3.151C249.698,366.671,248.123,367.458,247.335,369.822z"/>
	<path style="fill:#324A5E;" d="M284.357,397.391c-4.726,0-7.877-1.575-10.24-5.12c-2.363-3.545-3.545-7.877-3.545-13.785
		c0-5.514,1.182-10.24,3.545-13.785s5.514-5.12,10.24-5.12s7.877,1.575,10.24,5.12c2.363,3.545,3.545,7.877,3.545,13.785
		c0,5.514-1.182,10.24-3.545,13.785C292.234,395.815,289.083,397.391,284.357,397.391z M279.631,369.822
		c-1.182,2.363-1.575,5.12-1.575,8.665c0,3.545,0.394,6.695,1.575,8.665c1.182,2.363,2.757,3.151,4.726,3.151
		c2.363,0,3.938-1.182,4.726-3.151c1.182-2.363,1.575-5.12,1.575-8.665c0-3.545-0.394-6.695-1.575-8.665
		c-1.182-2.363-2.757-3.151-4.726-3.151C282.388,366.671,280.812,367.458,279.631,369.822z"/>
	<path style="fill:#324A5E;" d="M317.046,397.391c-4.726,0-7.877-1.575-10.24-5.12c-2.363-3.545-3.545-7.877-3.545-13.785
		c0-5.514,1.182-10.24,3.545-13.785s5.514-5.12,10.24-5.12c4.726,0,7.877,1.575,10.24,5.12c2.363,3.545,3.545,7.877,3.545,13.785
		c0,5.514-1.182,10.24-3.545,13.785C324.923,395.815,321.378,397.391,317.046,397.391z M311.926,369.822
		c-1.182,2.363-1.575,5.12-1.575,8.665c0,3.545,0.394,6.695,1.575,8.665c1.182,2.363,2.757,3.151,4.726,3.151
		c2.363,0,3.938-1.182,4.726-3.151c1.182-2.363,1.575-5.12,1.575-8.665c0-3.545-0.394-6.695-1.575-8.665
		c-1.182-2.363-2.757-3.151-4.726-3.151C314.683,366.671,313.108,367.458,311.926,369.822z"/>
	<path style="fill:#324A5E;" d="M349.342,397.391c-4.726,0-7.877-1.575-10.24-5.12c-2.363-3.545-3.545-7.877-3.545-13.785
		c0-5.514,1.182-10.24,3.545-13.785s5.514-5.12,10.24-5.12s7.877,1.575,10.24,5.12s3.545,7.877,3.545,13.785
		c0,5.514-1.182,10.24-3.545,13.785C357.218,395.815,354.068,397.391,349.342,397.391z M344.615,369.822
		c-1.182,2.363-1.575,5.12-1.575,8.665c0,3.545,0.394,6.695,1.575,8.665c1.182,2.363,2.757,3.151,4.726,3.151
		c2.363,0,3.938-1.182,4.726-3.151c1.182-2.363,1.575-5.12,1.575-8.665c0-3.545-0.394-6.695-1.575-8.665
		c-1.182-2.363-2.757-3.151-4.726-3.151S345.797,367.458,344.615,369.822z"/>
</g>
<g>
</g>
<g>
</g>
<g>
</g>
<g>
</g>
<g>
</g>
<g>
</g>
<g>
</g>
<g>
</g>
<g>
</g>
<g>
</g>
<g>
</g>
<g>
</g>
<g>
</g>
<g>
</g>
<g>
</g>
</svg>
